# xmcd
#
# Track frame offsets:
#	150
#	12630
#	33965
#	49592
#	71902
#	90970
#	109875
#
# Disc length: 1763 seconds
#
# Revision: 1
# Processed by: cddbd v1.5.1PL0 Copyright (c) Steve Scherf et al.
# Submitted via: CDex 1.50Beta5
#
DISCID=5506e107
DTITLE=アンサンブル・プラネタ - エトワール
DYEAR=2003
DGENRE=Classical
TTITLE0=アヴェ・マリア／J.S.バッハ＝C.F.グノー
TTITLE1=グリーンスリーヴス（イングランド民謡）
TTITLE2=あら野のはてに
TTITLE3=エイシャント・オース／書上奈朋子
TTITLE4=亡き王女のためのパヴァーヌ／M.ラヴェル
TTITLE5=シシリエンヌ／G.フォーレ
TTITLE6=オー・ホーリー・ナイト／A.C.アダン
EXTD=
EXTT0=
EXTT1=
EXTT2=
EXTT3=
EXTT4=
EXTT5=
EXTT6=
PLAYORDER=
